<svg width="20" height="20" viewBox="0 0 20 20" fill="none" xmlns="http://www.w3.org/2000/svg">
<g clip-path="url(#clip0_668_688)">
<path d="M9.99984 1.66602C6.77484 1.66602 4.1665 4.27435 4.1665 7.49935C4.1665 11.8743 9.99984 18.3327 9.99984 18.3327C9.99984 18.3327 15.8332 11.8743 15.8332 7.49935C15.8332 4.27435 13.2248 1.66602 9.99984 1.66602ZM5.83317 7.49935C5.83317 5.19935 7.69984 3.33268 9.99984 3.33268C12.2998 3.33268 14.1665 5.19935 14.1665 7.49935C14.1665 9.89935 11.7665 13.491 9.99984 15.7327C8.2665 13.5077 5.83317 9.87435 5.83317 7.49935Z" fill="#008DFF"/>
<path d="M10.4168 10.0007C11.5674 10.0007 12.5002 9.06791 12.5002 7.91732C12.5002 6.76672 11.5674 5.83398 10.4168 5.83398C9.26624 5.83398 8.3335 6.76672 8.3335 7.91732C8.3335 9.06791 9.26624 10.0007 10.4168 10.0007Z" fill="#008DFF"/>
</g>
<defs>
<clipPath id="clip0_668_688">
<rect width="20" height="20" fill="white"/>
</clipPath>
</defs>
</svg>
