<svg width="20" height="20" viewBox="0 0 20 20" fill="none" xmlns="http://www.w3.org/2000/svg">
<path d="M14.3958 18.334C13.3065 18.334 12.3779 17.9482 11.61 17.1768C10.8422 16.4053 10.4583 15.4722 10.4583 14.3776C10.4583 13.2831 10.8422 12.35 11.61 11.5785C12.3779 10.807 13.3065 10.4213 14.3958 10.4213C15.4852 10.4213 16.4138 10.807 17.1816 11.5785C17.9494 12.35 18.3333 13.2831 18.3333 14.3776C18.3333 15.4722 17.9494 16.4053 17.1816 17.1768C16.4138 17.9482 15.4852 18.334 14.3958 18.334ZM15.6092 16.4919L16.1875 15.9058L14.625 14.3358V11.9913H13.8125V14.6288L15.6092 16.4919ZM3.75 17.2036C3.40625 17.2036 3.11198 17.0806 2.86719 16.8347C2.6224 16.5887 2.5 16.293 2.5 15.9476V3.76461C2.5 3.41921 2.60764 3.12353 2.82292 2.87757C3.03819 2.63161 3.22222 2.50863 3.375 2.50863H7.58333C7.68056 2.02019 7.92014 1.61897 8.30208 1.30498C8.68403 0.990982 9.125 0.833984 9.625 0.833984C10.125 0.833984 10.566 0.990982 10.9479 1.30498C11.3299 1.61897 11.5694 2.02019 11.6667 2.50863H15.875C16.2188 2.50863 16.513 2.63161 16.7578 2.87757C17.0026 3.12353 17.125 3.41921 17.125 3.76461V9.93985C16.9167 9.81425 16.7117 9.70623 16.5101 9.6158C16.3085 9.52537 16.0968 9.44499 15.875 9.37465V3.76461H13.6667V6.4859H5.95833V3.76461H3.75V15.9476H9.4375C9.50694 16.157 9.59028 16.3628 9.6875 16.5651C9.78472 16.7675 9.90278 16.9803 10.0417 17.2036H3.75ZM10 3.68087C10.2361 3.68087 10.434 3.60063 10.5938 3.44014C10.7535 3.27966 10.8333 3.08079 10.8333 2.84355C10.8333 2.60631 10.7535 2.40745 10.5938 2.24696C10.434 2.08648 10.2361 2.00623 10 2.00623C9.76389 2.00623 9.56597 2.08648 9.40625 2.24696C9.24653 2.40745 9.16667 2.60631 9.16667 2.84355C9.16667 3.08079 9.24653 3.27966 9.40625 3.44014C9.56597 3.60063 9.76389 3.68087 10 3.68087Z" fill="#008DFF"/>
</svg>
