<svg width="118" height="26" viewBox="0 0 118 26" fill="none" xmlns="http://www.w3.org/2000/svg">
<g clip-path="url(#clip0_434_13464)">
<path d="M38.1717 9.30213C38.1167 8.73967 37.8809 8.30271 37.4642 7.99126C37.0474 7.67983 36.4817 7.52409 35.7672 7.52409C35.2819 7.52409 34.8718 7.59382 34.5377 7.73327C34.2033 7.86808 33.9467 8.05635 33.7682 8.29807C33.5941 8.53979 33.5071 8.81405 33.5071 9.12084C33.498 9.37651 33.5506 9.59961 33.6651 9.79021C33.7841 9.98081 33.9467 10.1458 34.1529 10.2853C34.359 10.4201 34.5972 10.5386 34.8674 10.6409C35.1376 10.7385 35.426 10.8222 35.7328 10.8919L36.997 11.1987C37.6107 11.3381 38.1739 11.5241 38.6871 11.7565C39.1999 11.9889 39.6442 12.2748 40.0196 12.6141C40.3953 12.9535 40.6861 13.3532 40.8922 13.8134C41.1029 14.2736 41.2105 14.8012 41.215 15.3962C41.2105 16.2701 40.9907 17.0278 40.5556 17.6693C40.1251 18.3061 39.5021 18.8012 38.6871 19.1545C37.8762 19.5031 36.8984 19.6774 35.7535 19.6774C34.6178 19.6774 33.6285 19.5008 32.7857 19.1475C31.9476 18.7942 31.2929 18.2713 30.8211 17.5787C30.3539 16.8814 30.1088 16.0191 30.0859 14.9918H32.9644C32.9964 15.4706 33.1316 15.8704 33.3696 16.1911C33.6125 16.5072 33.9353 16.7466 34.3383 16.9093C34.7459 17.0673 35.2062 17.1463 35.7193 17.1463C36.2231 17.1463 36.6604 17.072 37.0314 16.9232C37.4069 16.7745 37.6977 16.5676 37.9037 16.3027C38.1098 16.0377 38.213 15.7332 38.213 15.3892C38.213 15.0685 38.1191 14.7989 37.9313 14.5804C37.7481 14.362 37.4779 14.176 37.1207 14.0226C36.7679 13.8692 36.3352 13.7298 35.8223 13.6043L34.2904 13.2138C33.1041 12.9209 32.1674 12.4631 31.4804 11.8402C30.7935 11.2173 30.4523 10.3782 30.4569 9.32304C30.4523 8.45843 30.6789 7.70306 31.137 7.05694C31.5997 6.4108 32.234 5.90645 33.0399 5.54387C33.8461 5.18129 34.7619 5 35.7879 5C36.8321 5 37.7434 5.18129 38.5221 5.54387C39.3051 5.90645 39.9144 6.4108 40.3495 7.05694C40.7845 7.70306 41.0089 8.45147 41.0227 9.30213H38.1717Z" fill="#555351"/>
<path d="M43 19.9032V9.14014H45.774V11.0391H45.897C46.1159 10.4085 46.4802 9.91094 46.9903 9.54657C47.5004 9.18219 48.111 9 48.8216 9C49.5413 9 50.1539 9.18452 50.6596 9.55359C51.1653 9.91794 51.5022 10.4131 51.6707 11.0391H51.7803C51.9942 10.4225 52.3813 9.92962 52.9418 9.56058C53.5067 9.18685 54.174 9 54.9438 9C55.9232 9 56.7179 9.32 57.3285 9.95999C57.9433 10.5953 58.2509 11.4969 58.2509 12.6648V19.9032H55.3468V13.2534C55.3468 12.6554 55.192 12.207 54.8822 11.908C54.5726 11.609 54.1853 11.4595 53.7206 11.4595C53.1922 11.4595 52.7799 11.6324 52.484 11.9781C52.1879 12.3191 52.0397 12.7699 52.0397 13.3304V19.9032H49.2178V13.1903C49.2178 12.6624 49.0698 12.242 48.7737 11.929C48.4822 11.616 48.0973 11.4595 47.619 11.4595C47.2955 11.4595 47.004 11.5436 46.7443 11.7118C46.4893 11.8753 46.2865 12.1065 46.1362 12.4055C45.986 12.6998 45.9107 13.0455 45.9107 13.4426V19.9032H43Z" fill="#555351"/>
<path d="M63.5164 19.9032C62.8408 19.9032 62.2385 19.7863 61.71 19.5524C61.1814 19.3139 60.7632 18.9631 60.4553 18.4999C60.1518 18.0321 60 17.4497 60 16.7527C60 16.1656 60.1081 15.6726 60.3242 15.2737C60.5401 14.8747 60.8343 14.5537 61.2066 14.3106C61.5789 14.0675 62.0019 13.8841 62.4754 13.7603C62.9533 13.6365 63.4542 13.5493 63.9783 13.4989C64.5942 13.4347 65.0906 13.3751 65.4677 13.32C65.8445 13.2604 66.1179 13.1733 66.2881 13.0586C66.4581 12.944 66.5433 12.7743 66.5433 12.5496V12.5083C66.5433 12.0726 66.4053 11.7356 66.1295 11.4971C65.8583 11.2586 65.4721 11.1394 64.9712 11.1394C64.4427 11.1394 64.022 11.2563 63.7094 11.4902C63.397 11.7195 63.19 12.0084 63.089 12.357L60.3723 12.1368C60.5103 11.4948 60.7815 10.9399 61.1861 10.4721C61.5905 9.99975 62.1122 9.63746 62.751 9.38523C63.3945 9.12842 64.1392 9 64.985 9C65.5733 9 66.1364 9.0688 66.674 9.20638C67.2166 9.34395 67.6968 9.55719 68.115 9.84613C68.538 10.135 68.8713 10.5065 69.1149 10.9605C69.3584 11.4099 69.4803 11.9488 69.4803 12.5771V19.7037H66.6948V18.2385H66.6121C66.4421 18.5687 66.2146 18.8599 65.9296 19.1121C65.6446 19.3598 65.3021 19.5547 64.9021 19.6969C64.5024 19.8345 64.0405 19.9032 63.5164 19.9032ZM64.3576 17.8808C64.7896 17.8808 65.1711 17.796 65.502 17.6263C65.8331 17.452 66.0927 17.2181 66.2812 16.9246C66.4697 16.6311 66.5637 16.2986 66.5637 15.9272V14.8059C66.4719 14.8655 66.3456 14.9205 66.1847 14.971C66.0283 15.0169 65.8514 15.0604 65.6537 15.1017C65.4561 15.1384 65.2584 15.1728 65.0608 15.2049C64.8631 15.2324 64.684 15.2576 64.5231 15.2805C64.1782 15.331 63.8771 15.4112 63.6198 15.5213C63.3624 15.6314 63.1626 15.7804 63.0199 15.9684C62.8776 16.1519 62.8063 16.3812 62.8063 16.6563C62.8063 17.0553 62.9511 17.3603 63.2405 17.5712C63.5347 17.7776 63.907 17.8808 64.3576 17.8808Z" fill="#555351"/>
<path d="M71 19.9032V9.15396H73.7398V11.0295H73.8459C74.0316 10.3623 74.3435 9.85846 74.7813 9.51787C75.2191 9.17264 75.7234 9 76.2939 9C76.4354 9 76.5878 9.00934 76.7516 9.028C76.9152 9.04665 77.0589 9.07232 77.1828 9.10498V11.7503C77.0501 11.7083 76.8666 11.671 76.6322 11.6383C76.3977 11.6057 76.1833 11.5894 75.9886 11.5894C75.5729 11.5894 75.2016 11.685 74.8742 11.8763C74.5513 12.0629 74.2949 12.3242 74.1047 12.6601C73.9188 12.996 73.826 13.3832 73.826 13.8218V19.9032H71Z" fill="#555351"/>
<path d="M85.4011 9.56445V11.7944H79V9.56445H85.4011ZM80.4533 7H83.4012V16.9791C83.4012 17.2532 83.4428 17.4669 83.5258 17.6202C83.6087 17.7689 83.7241 17.8734 83.8718 17.9338C84.0241 17.9942 84.1994 18.0244 84.3978 18.0244C84.5362 18.0244 84.6747 18.0128 84.8129 17.9895C84.9513 17.9617 85.0576 17.9407 85.1314 17.9268L85.595 20.1359C85.4474 20.1823 85.2396 20.2358 84.9721 20.2962C84.7046 20.3612 84.3792 20.4007 83.9963 20.4146C83.2858 20.4425 82.6632 20.3473 82.128 20.1289C81.5975 19.9105 81.1844 19.5714 80.8892 19.1115C80.594 18.6515 80.4486 18.0708 80.4533 17.3693V7Z" fill="#555351"/>
<path d="M89.6018 9.4267H92.4215V20.7715C92.4215 21.6066 92.2671 22.2822 91.9582 22.7983C91.6493 23.3144 91.2059 23.6921 90.6277 23.9314C90.0542 24.1707 89.368 24.2903 88.5692 24.2903C88.4723 24.2903 88.3795 24.288 88.2914 24.2833C88.1987 24.2833 88.1016 24.2809 88 24.2762V21.9327C88.0751 21.9374 88.1412 21.9397 88.1987 21.9397C88.2516 21.9444 88.3089 21.9468 88.3707 21.9468C88.8253 21.9468 89.1429 21.8435 89.3239 21.6371C89.5091 21.4354 89.6018 21.1304 89.6018 20.7222V9.4267ZM91.005 8.03324C90.5902 8.03324 90.2328 7.88546 89.9329 7.58986C89.6328 7.28961 89.4826 6.93067 89.4826 6.51311C89.4826 6.10023 89.6328 5.746 89.9329 5.4504C90.2328 5.15014 90.5902 5 91.005 5C91.4285 5 91.7884 5.15014 92.084 5.4504C92.3839 5.746 92.5341 6.10023 92.5341 6.51311C92.5341 6.93067 92.3839 7.28961 92.084 7.58986C91.7884 7.88546 91.4285 8.03324 91.005 8.03324Z" fill="#555351"/>
<path d="M100.152 19.9032C99.0938 19.9032 98.1781 19.6764 97.4057 19.2226C96.6378 18.7643 96.0449 18.1273 95.6268 17.3115C95.2088 16.4911 95 15.5401 95 14.4585C95 13.3677 95.2088 12.4144 95.6268 11.5986C96.0449 10.7782 96.6378 10.1412 97.4057 9.68747C98.1781 9.22917 99.0938 9 100.152 9C101.211 9 102.124 9.22917 102.892 9.68747C103.664 10.1412 104.26 10.7782 104.678 11.5986C105.096 12.4144 105.305 13.3677 105.305 14.4585C105.305 15.5401 105.096 16.4911 104.678 17.3115C104.26 18.1273 103.664 18.7643 102.892 19.2226C102.124 19.6764 101.211 19.9032 100.152 19.9032ZM100.166 17.6346C100.647 17.6346 101.05 17.4971 101.372 17.2221C101.695 16.9425 101.938 16.5621 102.101 16.0809C102.27 15.5997 102.354 15.052 102.354 14.4379C102.354 13.8237 102.27 13.276 102.101 12.7948C101.938 12.3136 101.695 11.9332 101.372 11.6536C101.05 11.3741 100.647 11.2343 100.166 11.2343C99.6799 11.2343 99.2708 11.3741 98.9391 11.6536C98.612 11.9332 98.3645 12.3136 98.1962 12.7948C98.0328 13.276 97.9511 13.8237 97.9511 14.4379C97.9511 15.052 98.0328 15.5997 98.1962 16.0809C98.3645 16.5621 98.612 16.9425 98.9391 17.2221C99.2708 17.4971 99.6799 17.6346 100.166 17.6346Z" fill="#555351"/>
<path d="M107 20.0861V6H109.93V11.296H110.02C110.148 11.0118 110.334 10.7229 110.577 10.4294C110.825 10.1314 111.146 9.88377 111.54 9.68658C111.939 9.48484 112.434 9.38396 113.026 9.38396C113.796 9.38396 114.507 9.58573 115.158 9.98923C115.81 10.3881 116.33 10.9911 116.72 11.7981C117.11 12.6006 117.305 13.6071 117.305 14.8176C117.305 15.996 117.114 16.991 116.734 17.8026C116.358 18.6096 115.844 19.2218 115.193 19.639C114.546 20.0517 113.822 20.2581 113.019 20.2581C112.45 20.2581 111.967 20.164 111.568 19.9761C111.173 19.7881 110.85 19.5519 110.598 19.2676C110.345 18.9788 110.153 18.6876 110.02 18.3941H109.889V20.0861H107ZM109.869 14.8038C109.869 15.432 109.955 15.9799 110.13 16.4477C110.304 16.9154 110.556 17.2799 110.887 17.5413C111.217 17.798 111.618 17.9264 112.09 17.9264C112.567 17.9264 112.971 17.7957 113.301 17.5344C113.631 17.2684 113.881 16.9016 114.051 16.4339C114.225 15.9616 114.312 15.4183 114.312 14.8038C114.312 14.194 114.228 13.6575 114.058 13.1944C113.888 12.7312 113.638 12.369 113.308 12.1076C112.978 11.8463 112.572 11.7156 112.09 11.7156C111.614 11.7156 111.21 11.8417 110.88 12.0939C110.554 12.3461 110.304 12.7037 110.13 13.1668C109.955 13.63 109.869 14.1756 109.869 14.8038Z" fill="#555351"/>
<mask id="mask0_434_13464" style="mask-type:luminance" maskUnits="userSpaceOnUse" x="0" y="0" width="26" height="26">
<path d="M0 2.14587C0 0.96074 0.944317 0 2.10919 0H16.2359C21.383 0 25.5556 4.24514 25.5556 9.48177V16.5182C25.5556 21.7549 21.383 26 16.2359 26H9.31968C4.17257 26 0 21.7549 0 16.5182V2.14587Z" fill="white"/>
</mask>
<g mask="url(#mask0_434_13464)">
<path d="M0 2.14587C0 0.96074 0.944317 0 2.10919 0H16.2359C21.383 0 25.5556 4.24514 25.5556 9.48177V16.5182C25.5556 21.7549 21.383 26 16.2359 26H9.31968C4.17257 26 0 21.7549 0 16.5182V2.14587Z" fill="#008DFF"/>
<path d="M15.6196 9.2007C15.5487 8.52281 15.2496 7.995 14.7224 7.61722C14.2002 7.23947 13.521 7.0506 12.6845 7.0506C12.0965 7.0506 11.5921 7.14116 11.1713 7.32226C10.7506 7.50338 10.4287 7.74918 10.2056 8.05967C9.98258 8.37016 9.86852 8.72462 9.86346 9.12308C9.86346 9.45426 9.93696 9.74148 10.084 9.98469C10.236 10.2279 10.4414 10.4349 10.6999 10.6056C10.9584 10.7712 11.2448 10.911 11.5591 11.0248C11.8734 11.1387 12.1903 11.2344 12.5096 11.312L13.9696 11.6846C14.5576 11.8243 15.1228 12.0132 15.6653 12.2512C16.2127 12.4893 16.7019 12.7894 17.1328 13.1517C17.5688 13.5139 17.9135 13.9511 18.167 14.4635C18.4204 14.9758 18.5472 15.576 18.5472 16.2643C18.5472 17.1957 18.314 18.0159 17.8476 18.7249C17.3812 19.4286 16.707 19.9797 15.8249 20.3782C14.948 20.7715 13.8859 20.9681 12.6389 20.9681C11.4273 20.9681 10.3755 20.7766 9.48325 20.3937C8.59613 20.0108 7.90163 19.4519 7.39976 18.7171C6.90297 17.9823 6.6343 17.087 6.59375 16.0314H9.36919C9.40974 16.5851 9.57704 17.0456 9.87106 17.413C10.1651 17.7805 10.5478 18.0547 11.0192 18.2358C11.4958 18.417 12.028 18.5075 12.6161 18.5075C13.2295 18.5075 13.7668 18.4144 14.2281 18.2281C14.6945 18.0366 15.0595 17.7727 15.3231 17.4363C15.5867 17.0948 15.721 16.6963 15.7261 16.241C15.721 15.827 15.6019 15.4855 15.3687 15.2164C15.1355 14.9421 14.8085 14.7144 14.3878 14.5333C13.9721 14.347 13.4855 14.1814 12.9278 14.0365L11.1561 13.5708C9.87358 13.2344 8.85971 12.7247 8.11455 12.0417C7.37441 11.3534 7.00437 10.4401 7.00437 9.30162C7.00437 8.36499 7.25275 7.54478 7.74954 6.84102C8.25141 6.13724 8.93322 5.59131 9.79501 5.2032C10.6568 4.80991 11.6326 4.61328 12.7225 4.61328C13.8276 4.61328 14.7959 4.80991 15.6272 5.2032C16.4637 5.59131 17.1202 6.13207 17.5967 6.82549C18.0732 7.51374 18.319 8.30547 18.3342 9.2007H15.6196Z" fill="white"/>
</g>
</g>
<defs>
<clipPath id="clip0_434_13464">
<rect width="118" height="26" fill="white"/>
</clipPath>
</defs>
</svg>
